<svg version="1" xmlns="http://www.w3.org/2000/svg" width="933.333" height="933.333" viewBox="0 0 700.000000 700.000000"><path d="M286.5 7.4c-9.2 4.2-14.2 13.1-13.2 23.2.6 6 4.2 13.1 8.1 16.1 2.3 1.7 2.5 2.9 4.9 29.3 1.4 15.1 2.5 27.5 2.4 27.6-.1.1-59.8 1.8-132.7 3.8-72.9 2-137.8 3.9-144.3 4.3l-11.7.6v29l14.2-.7c24.9-1.1 276.8-7.9 277.2-7.5.2.2.6 4.2 1 8.9l.6 8.5-146.2 96-146.3 96-.3 22.3C.1 377 .2 387 .5 387c.2 0 67-43.7 148.2-97.1 81.3-53.4 148.3-97.3 148.9-97.6.6-.2 3 3.8 5.3 8.9 4 8.8 4.1 9.4 2.4 10.6-1 .6-7.9 5.2-15.3 10.1-59.9 39.4-98 100.8-109.1 175.6-2.1 13.5-1.8 51 .4 65.5 4.2 27.3 11.7 51.3 23.7 75.5 38.2 77.4 112.2 128.8 198.4 137.5 14.9 1.6 47.1.8 61.6-1.5 78.4-12.2 147-61.4 183.4-131.7 14.3-27.4 23.3-57.5 26.6-88 1.3-12.5 1.3-40.1 0-52.6-5.8-54.4-30-106.2-68-145.6-39.1-40.4-87.9-65.6-144-74.2-16-2.5-53.8-2.5-70.1-.1-14.4 2.1-36.6 7.6-47.9 11.7-4.7 1.8-9.2 3.4-10 3.6-1.1.3-2.7-2.2-5.7-8.8l-4.3-9.3-6.1-66.5-6.1-66.5 3.3-5.3c9.9-16-1-36.2-19.6-36.2-3.1 0-6.9.9-10 2.4zm160 213.6c50.5 4.8 95.1 26.2 130.5 62.6 21.3 22 34.7 42.8 45.5 70.9 8.5 22.2 12.4 41.6 13.2 66.6.9 27.2-2.1 48.8-10.3 73.8-3.3 10.1-15.6 37.1-16.9 37.1-.4 0-37.8-21.6-83.1-48.1L443 435.8l4-4.7c2.1-2.5 28.4-30.9 58.3-63.1s54.3-58.6 54.2-58.8c-.2-.2-28.3 20.6-62.5 46.3-34.2 25.6-62.7 46.8-63.3 47.1-.8.3-2.4-2-4.1-5.3C418.5 374.8 352 235.7 352 235c0-.5 5.5-2.7 12.3-4.9 26.2-8.5 54.7-11.7 82.2-9.1zm-114.9 47.7c20.9 36.6 23.9 42.3 48 92.7 13.5 28 24.3 51 24.2 51.1-.6.5-154.8-89.9-154.8-90.8 0-1.5 10-15.9 17.5-25.2 8.3-10.2 20.6-22.4 31.1-30.8 7.3-5.9 21.4-15.6 22.6-15.7.3 0 5.5 8.4 11.4 18.7zM325 373.5c92.3 53.8 83.6 48.5 81.9 49.6-1.1.6-1.1 1.1-.1 2.1.6.6 1.2 1.6 1.2 2.2 0 .9-188 0-188.9-1-.9-.9 2.2-29 4.4-39.8 1.3-6.4 4.2-17.1 6.5-23.8 4.1-12.3 14.8-36 15.9-35.4.3.2 35.9 20.9 79.1 46.1zm88.9 60.1c.8.7 1.3 1.5 1 1.7-.9.8-166.1 94.8-167.4 95.3-1 .4-2.9-2.5-6.5-9.7-12.4-24.6-19.3-50.6-21.6-80.5l-.6-9.1 96.8.5c80.3.3 97.1.6 98.3 1.8zm4.1 7.9c0 1.2-94 163.5-96 165.8-1 1.1-18.4-10.7-28.7-19.5-15-12.7-30.8-30.6-40.7-46.1-2.1-3.2-3.5-6.2-3.1-6.5 1.7-1.7 167.1-95.8 167.8-95.5.4.2.7 1 .7 1.8zm102.7 46.2c45 26.2 82.4 48.2 83.2 48.9 1.2 1.1.8 2.3-3.1 8.1-14.5 21.9-35.2 42.3-58.5 57.9l-9.7 6.5-1.7-2.8c-.9-1.5-22.5-39.2-47.8-83.6-39.9-69.8-46.8-82.7-44.6-82.7.2 0 37.2 21.4 82.2 47.7zm-95.9-42.5c.9.9 1.2 19.5 1.2 77.7 0 42.2-.3 85-.7 95.3l-.6 18.8h-4.1c-8.6 0-30.5-3.2-42.6-6.1-14.6-3.6-27.5-8.2-41.8-15.1-8.4-4-10.2-5.2-9.7-6.6 1.1-2.9 96-165.2 96.5-165.2.4 0 1.1.5 1.8 1.2zm55.2 83.4c25.6 44.8 46.7 81.9 46.8 82.5.5 1.4-19.2 10.4-32.6 14.9-6.5 2.2-16.9 5.1-23.3 6.4-11.7 2.6-38.3 5.5-39.5 4.4-.8-.8.7-189.8 1.5-189.8.3.1 21.5 36.8 47.1 81.6z"/><path d="M426 269.5V302h10v-65h-10v32.5zM520.7 264.2c-3.9 6.1-30.7 53.1-30.5 53.3 2.5 2 8.8 5.3 9.1 4.7 9.7-16.4 30.7-53.3 30.9-54.1.2-.7-1.6-2.3-3.9-3.7l-4.2-2.5-1.4 2.3zM564 347.5c-14.6 8.5-26.5 15.8-26.5 16.2.1 1.6 3.9 8.3 4.7 8.3 1.6 0 54.8-31.3 54.8-32.2 0-1.9-4.1-7.8-5.3-7.7-.7 0-13.1 7-27.7 15.4zM555 432.5v5.5h64v-11h-64v5.5z"/></svg>